<svg xmlns="http://www.w3.org/2000/svg" version="1.1" xmlns:xlink="http://www.w3.org/1999/xlink" xmlns:svgjs="http://svgjs.dev/svgjs" width="128" height="128" viewBox="0 0 128 128"><g transform="matrix(0.6130952380952381,0,0,0.6130952380952381,24.607276858080176,12.221578124999994)"><svg viewBox="0 0 73 96" data-background-color="#004051" preserveAspectRatio="xMidYMid meet" height="168" width="128" xmlns="http://www.w3.org/2000/svg" xmlns:xlink="http://www.w3.org/1999/xlink"><g id="tight-bounds" transform="matrix(1,0,0,1,0.1438377284970187,0.25950000000000273)"><svg viewBox="0 0 72.71232454300598 95.481" height="95.481" width="72.71232454300598"><g><svg viewBox="0 0 72.71232454300598 95.481" height="95.481" width="72.71232454300598"><g><svg viewBox="0 0 72.71232454300598 95.481" height="95.481" width="72.71232454300598"><g id="textblocktransform"><svg viewBox="0 0 72.71232454300598 95.481" height="95.481" width="72.71232454300598" id="textblock"><g><svg viewBox="0 0 72.71232454300598 95.481" height="95.481" width="72.71232454300598"><g><svg viewBox="0 0 72.71232454300598 95.481" height="95.481" width="72.71232454300598"><g><svg xmlns="http://www.w3.org/2000/svg" xmlns:xlink="http://www.w3.org/1999/xlink" version="1.1" x="0" y="0" viewBox="18.084 8.089863346222403 63.8313828644866 83.8191366537776" enable-background="new 0 0 100 100" xml:space="preserve" height="95.481" width="72.71232454300598" class="icon-icon-0" data-fill-palette-color="accent" id="icon-0"><g fill="#32fd6b" data-fill-palette-color="accent"><path fill="#32fd6b" d="M75.831 81.262C75.37 85.817 71.71 89.089 67.652 88.571L33.122 84.153C29.067 83.632 26.154 79.521 26.615 74.966L32.65 15.451C33.114 10.896 36.773 7.625 40.832 8.144L75.361 12.561C79.418 13.081 82.33 17.193 81.867 21.748z" data-fill-palette-color="accent"></path><path fill="#32fd6b" d="M28.725 87.08C24.67 86.561 21.756 82.448 22.217 77.893L28.253 18.379A9 9 0 0 1 29.082 15.41H25.475C21.392 15.41 18.084 19.126 18.084 23.711V83.607C18.084 88.193 21.392 91.909 25.475 91.909H60.229C61.095 91.909 61.922 91.732 62.696 91.425z" data-fill-palette-color="accent"></path></g></svg></g></svg></g></svg></g></svg></g></svg></g><g></g></svg></g><defs></defs></svg><rect width="72.71232454300598" height="95.481" fill="none" stroke="none" visibility="hidden"></rect></g></svg></g></svg>